<svg width="60" height="60" viewBox="0 0 60 60" fill="none" xmlns="http://www.w3.org/2000/svg">
<g clip-path="url(#clip0_3366_13608)">
<circle opacity="0.13" cx="30" cy="30" r="30" fill="#BB4CFF"/>
<path d="M16.8416 20.365C12.7609 20.8101 11.1838 25.9143 14.3022 28.5838L19.3087 32.8396C19.6357 33.1176 20.1035 33.1559 20.4714 32.9349L32.3303 25.8093C33.0698 25.365 34.0295 25.6043 34.4739 26.3438C34.9182 27.0833 34.6789 28.043 33.9394 28.4873L22.0805 35.6129C21.7126 35.8339 21.5268 36.265 21.6187 36.6842L23.026 43.1027C23.919 47.1092 29.1662 48.113 31.475 44.719L44.8309 25.0847C47.0796 21.779 44.4224 17.3567 40.448 17.7902L16.8416 20.365Z" fill="#BB4CFF"/>
</g>
<defs>
<clipPath id="clip0_3366_13608">
<rect width="60" height="60" fill="white"/>
</clipPath>
</defs>
</svg>
