<svg width="60" height="60" viewBox="0 0 60 60" fill="none" xmlns="http://www.w3.org/2000/svg">
<g clip-path="url(#clip0_3415_26810)">
<circle opacity="0.2" cx="30" cy="30" r="30" fill="#3E9AFF"/>
<mask id="path-2-inside-1_3415_26810" fill="white">
<path d="M31.748 41.9937H28.2519C27.5418 41.9937 26.923 42.5004 26.9825 43.2081C27.0763 44.3225 27.6019 45.8803 29.7064 46.4242C29.8981 46.4737 30.1019 46.4737 30.2935 46.4242C32.398 45.8803 32.9237 44.3225 33.0174 43.2081C33.0769 42.5004 32.4581 41.9937 31.748 41.9937Z"/>
</mask>
<path d="M26.9825 43.2081L23.9946 43.4594L26.9825 43.2081ZM29.7064 46.4242L28.9562 49.3272L28.9562 49.3272L29.7064 46.4242ZM30.2935 46.4242L31.0438 49.3272L31.0438 49.3272L30.2935 46.4242ZM33.0174 43.2081L36.0053 43.4594L36.0053 43.4594L33.0174 43.2081ZM28.2519 44.9921H31.748V38.9952H28.2519V44.9921ZM23.9946 43.4594C24.0685 44.337 24.3222 45.5574 25.1118 46.7173C25.9456 47.9423 27.2312 48.8815 28.9562 49.3272L30.4567 43.5212C30.2417 43.4656 30.1437 43.405 30.1125 43.3834C30.083 43.363 30.0746 43.351 30.0691 43.3429C30.0463 43.3094 29.9903 43.1936 29.9704 42.9567L23.9946 43.4594ZM31.0438 49.3272C32.7687 48.8815 34.0543 47.9423 34.8882 46.7173C35.6778 45.5574 35.9315 44.337 36.0053 43.4594L30.0296 42.9568C30.0096 43.1936 29.9537 43.3094 29.9308 43.3429C29.9253 43.351 29.917 43.363 29.8874 43.3834C29.8563 43.405 29.7583 43.4656 29.5433 43.5212L31.0438 49.3272ZM31.748 44.9921C31.4098 44.9921 31.0063 44.875 30.6514 44.5514C30.2592 44.1939 29.9747 43.6092 30.0296 42.9568L36.0053 43.4594C36.2538 40.5054 33.6719 38.9952 31.748 38.9952V44.9921ZM28.9562 49.3272C29.6399 49.5039 30.36 49.5039 31.0438 49.3272L29.5433 43.5212C29.8437 43.4435 30.1562 43.4435 30.4567 43.5212L28.9562 49.3272ZM28.2519 38.9952C26.3281 38.9952 23.7462 40.5054 23.9946 43.4594L29.9704 42.9567C30.0253 43.6092 29.7408 44.1939 29.3485 44.5514C28.9936 44.875 28.5901 44.9921 28.2519 44.9921V38.9952Z" fill="#3E9AFF" mask="url(#path-2-inside-1_3415_26810)"/>
<path fill-rule="evenodd" clip-rule="evenodd" d="M22.5039 22.7521C23.6281 19.3799 27.2806 15.5863 29.0381 13.8989C29.5799 13.3787 30.4202 13.3787 30.962 13.8989C32.7195 15.5863 36.3719 19.3799 37.496 22.7521C38.0697 24.4732 38.0134 26.9554 37.6826 29.5024C40.0801 29.6002 41.9937 31.5747 41.9937 33.9962V40.1902C41.9937 41.3876 40.6592 42.1018 39.6629 41.4376L35.2854 38.5192C34.4823 39.4416 33.2866 39.9931 31.9935 39.9931H27.9943C26.7038 39.9931 25.51 39.4438 24.7077 38.5239L20.3372 41.4376C19.3409 42.1018 18.0063 41.3876 18.0063 40.1902V33.9962C18.0063 31.5797 19.9122 29.6082 22.3028 29.503C21.9756 26.9666 21.9247 24.4896 22.5039 22.7521ZM30 27.9994C31.656 27.9994 32.9984 26.6569 32.9984 25.001C32.9984 23.345 31.656 22.0025 30 22.0025C28.344 22.0025 27.0016 23.345 27.0016 25.001C27.0016 26.6569 28.344 27.9994 30 27.9994Z" fill="#3E9AFF"/>
</g>
<defs>
<clipPath id="clip0_3415_26810">
<rect width="60" height="60" fill="white"/>
</clipPath>
</defs>
</svg>
