<svg width="60" height="60" viewBox="0 0 60 60" fill="none" xmlns="http://www.w3.org/2000/svg">
<g clip-path="url(#clip0_3544_19141)">
<circle opacity="0.14" cx="30" cy="30" r="30" fill="#FFB444"/>
<path fill-rule="evenodd" clip-rule="evenodd" d="M18.6147 17.1902C19.4008 17.1902 20.038 17.8274 20.038 18.6135V41.3865C20.038 42.1726 19.4008 42.8098 18.6147 42.8098C17.8286 42.8098 17.1914 42.1726 17.1914 41.3865V18.6135C17.1914 17.8274 17.8286 17.1902 18.6147 17.1902Z" fill="#FFB444"/>
<path d="M41.3878 35.6933H32.8479C32.3086 35.6933 31.8137 35.3875 31.5747 34.9038L30.9408 33.6361C30.6962 33.1524 30.207 32.8466 29.6676 32.8466H17.1914V18.6135C17.1914 17.8296 17.8308 17.1902 18.6147 17.1902H31.4246C31.9639 17.1902 32.4587 17.496 32.6978 17.9797L33.3316 19.2473C33.5762 19.731 34.0655 20.0368 34.6048 20.0368H41.3878C42.1717 20.0368 42.8111 20.6762 42.8111 21.4601V34.27C42.8111 35.0539 42.1717 35.6933 41.3878 35.6933Z" fill="#FFB444"/>
</g>
<defs>
<clipPath id="clip0_3544_19141">
<rect width="60" height="60" fill="white"/>
</clipPath>
</defs>
</svg>
