<svg width="60" height="60" viewBox="0 0 60 60" fill="none" xmlns="http://www.w3.org/2000/svg">
<g clip-path="url(#clip0_3415_26805)">
<circle opacity="0.2" cx="30" cy="30" r="30" fill="#3E9AFF"/>
<path fill-rule="evenodd" clip-rule="evenodd" d="M24.7858 45.6429C24.7858 44.683 25.5639 43.9048 26.5239 43.9048H33.4763C34.4362 43.9048 35.2144 44.683 35.2144 45.6429C35.2144 46.6028 34.4362 47.381 33.4763 47.381H26.5239C25.5639 47.381 24.7858 46.6028 24.7858 45.6429Z" fill="#3E9AFF"/>
<path fill-rule="evenodd" clip-rule="evenodd" d="M36.0835 36.3275C36.0835 35.7071 36.4201 35.1416 36.9298 34.7878C40.0947 32.5909 42.1669 28.9304 42.1669 24.7859C42.1669 18.0664 36.7197 12.6191 30.0001 12.6191C23.2806 12.6191 17.8334 18.0664 17.8334 24.7859C17.8334 28.9304 19.9056 32.5909 23.0705 34.7878C23.5802 35.1416 23.9168 35.7071 23.9168 36.3275V36.9527C23.9168 39.3525 25.8622 41.298 28.262 41.298H31.7383C34.1381 41.298 36.0835 39.3525 36.0835 36.9527V36.3275Z" fill="#3E9AFF"/>
</g>
<defs>
<clipPath id="clip0_3415_26805">
<rect width="60" height="60" fill="white"/>
</clipPath>
</defs>
</svg>
