<svg width="60" height="60" viewBox="0 0 60 60" fill="none" xmlns="http://www.w3.org/2000/svg">
<g clip-path="url(#clip0_3449_23941)">
<circle opacity="0.13" cx="30" cy="30" r="30" fill="#05C168"/>
<path fill-rule="evenodd" clip-rule="evenodd" d="M30.0089 38.861C34.9013 38.861 38.8674 34.895 38.8674 30.0025C38.8674 25.1101 34.9013 21.144 30.0089 21.144C25.1165 21.144 21.1504 25.1101 21.1504 30.0025C21.1504 34.895 25.1165 38.861 30.0089 38.861Z" fill="#05C168"/>
<path fill-rule="evenodd" clip-rule="evenodd" d="M30 14.5C30.8154 14.5 31.4764 15.161 31.4764 15.9764V17.4528C31.4764 18.2682 30.8154 18.9293 30 18.9293C29.1846 18.9293 28.5236 18.2682 28.5236 17.4528V15.9764C28.5236 15.161 29.1846 14.5 30 14.5Z" fill="#05C168"/>
<path fill-rule="evenodd" clip-rule="evenodd" d="M30 41.0755C30.8154 41.0755 31.4764 41.7365 31.4764 42.5519V44.0236C31.4764 44.839 30.8154 45.5 30 45.5C29.1846 45.5 28.5236 44.839 28.5236 44.0236V42.5519C28.5236 41.7365 29.1846 41.0755 30 41.0755Z" fill="#05C168"/>
<path fill-rule="evenodd" clip-rule="evenodd" d="M14.5 30C14.5 29.1846 15.161 28.5236 15.9764 28.5236H17.4528C18.2682 28.5236 18.9293 29.1846 18.9293 30C18.9293 30.8154 18.2682 31.4764 17.4528 31.4764H15.9764C15.161 31.4764 14.5 30.8154 14.5 30Z" fill="#05C168"/>
<path fill-rule="evenodd" clip-rule="evenodd" d="M41.0755 30C41.0755 29.1846 41.7365 28.5236 42.5519 28.5236H44.0236C44.839 28.5236 45.5 29.1846 45.5 30C45.5 30.8154 44.839 31.4764 44.0236 31.4764H42.5519C41.7365 31.4764 41.0755 30.8154 41.0755 30Z" fill="#05C168"/>
<path fill-rule="evenodd" clip-rule="evenodd" d="M19.04 40.9601C18.4634 40.3836 18.4634 39.4488 19.04 38.8722L20.084 37.8282C20.6605 37.2516 21.5954 37.2516 22.1719 37.8282C22.7485 38.4048 22.7485 39.3396 22.1719 39.9162L21.128 40.9601C20.5514 41.5367 19.6166 41.5367 19.04 40.9601Z" fill="#05C168"/>
<path fill-rule="evenodd" clip-rule="evenodd" d="M37.8317 22.1684C37.2551 21.5918 37.2551 20.657 37.8317 20.0805L38.8723 19.0398C39.4489 18.4633 40.3837 18.4633 40.9603 19.0398C41.5369 19.6164 41.5369 20.5512 40.9603 21.1278L39.9197 22.1684C39.3431 22.745 38.4083 22.745 37.8317 22.1684Z" fill="#05C168"/>
<path fill-rule="evenodd" clip-rule="evenodd" d="M19.04 19.0398C19.6166 18.4633 20.5514 18.4633 21.128 19.0398L22.1719 20.0838C22.7485 20.6604 22.7485 21.5952 22.1719 22.1718C21.5954 22.7484 20.6605 22.7484 20.084 22.1718L19.04 21.1278C18.4634 20.5512 18.4634 19.6164 19.04 19.0398Z" fill="#05C168"/>
<path fill-rule="evenodd" clip-rule="evenodd" d="M37.8317 37.8316C38.4083 37.255 39.3431 37.255 39.9197 37.8316L40.9603 38.8722C41.5369 39.4488 41.5369 40.3836 40.9603 40.9601C40.3837 41.5367 39.4489 41.5367 38.8723 40.9601L37.8317 39.9195C37.2551 39.343 37.2551 38.4081 37.8317 37.8316Z" fill="#05C168"/>
</g>
<defs>
<clipPath id="clip0_3449_23941">
<rect width="60" height="60" fill="white"/>
</clipPath>
</defs>
</svg>
