<svg width="60" height="60" viewBox="0 0 60 60" fill="none" xmlns="http://www.w3.org/2000/svg">
<g clip-path="url(#clip0_3415_26807)">
<circle opacity="0.2" cx="30" cy="30" r="30" fill="#FFB444"/>
<path d="M12.3718 38.0128V42.8205C12.3718 43.7055 13.0893 44.423 13.9744 44.423H36.4102C37.2953 44.423 38.0128 43.7055 38.0128 42.8205V38.0128C38.0128 34.4725 35.1428 31.6025 31.6025 31.6025H18.7821C15.2418 31.6025 12.3718 34.4725 12.3718 38.0128Z" fill="#FFB444"/>
<path d="M41.1922 43.3201C41.1354 43.8702 41.5244 44.423 42.0774 44.423H46.0256C46.9106 44.423 47.6281 43.7055 47.6281 42.8205V38.0128C47.6281 34.4725 44.7582 31.6025 41.2179 31.6025H39.6658C39.3194 31.6025 39.1294 32.0188 39.3355 32.2971C40.5184 33.8949 41.2179 35.8721 41.2179 38.0128V42.8205C41.2179 42.9892 41.2092 43.1559 41.1922 43.3201Z" fill="#FFB444"/>
<path d="M31.6025 21.9869C31.6025 25.5272 28.7325 28.3971 25.1922 28.3971C21.6519 28.3971 18.782 25.5272 18.782 21.9869C18.782 18.4466 21.6519 15.5767 25.1922 15.5767C28.7325 15.5767 31.6025 18.4466 31.6025 21.9869Z" fill="#FFB444"/>
<path d="M33.7673 28.3131C33.2213 28.224 33.0351 27.5787 33.3303 27.1107C34.2662 25.6274 34.8078 23.8704 34.8078 21.9869C34.8078 20.1034 34.2662 18.3464 33.3303 16.8631C33.0351 16.3951 33.2213 15.7498 33.7673 15.6607C34.1059 15.6054 34.4535 15.5767 34.8078 15.5767C38.348 15.5767 41.218 18.4466 41.218 21.9869C41.218 25.5272 38.348 28.3971 34.8078 28.3971C34.4535 28.3971 34.1059 28.3684 33.7673 28.3131Z" fill="#FFB444"/>
</g>
<defs>
<clipPath id="clip0_3415_26807">
<rect width="60" height="60" fill="white"/>
</clipPath>
</defs>
</svg>
