<svg width="60" height="60" viewBox="0 0 60 60" fill="none" xmlns="http://www.w3.org/2000/svg">
<g clip-path="url(#clip0_3449_23943)">
<circle opacity="0.13" cx="30" cy="30" r="30" fill="#3E9AFF"/>
<path fill-rule="evenodd" clip-rule="evenodd" d="M24.2545 17.1593L23.0575 19.7927H19.4145C17.2222 19.7927 15.3931 21.3477 14.9701 23.415C14.9097 23.7103 14.8779 24.0161 14.8779 24.3293V26.5976C14.8779 28.6855 16.5705 30.378 18.6584 30.378H24.2092C24.832 28.6161 26.5124 27.3537 28.4877 27.3537H31.5121C33.4873 27.3537 35.1677 28.6161 35.7905 30.378H41.3413C43.4293 30.378 45.1218 28.6855 45.1218 26.5976V24.3293C45.1218 21.8238 43.0907 19.7927 40.5852 19.7927H36.9422L35.7453 17.1593C35.0091 15.5398 33.3943 14.5 31.6153 14.5H28.3845C26.6055 14.5 24.9907 15.5398 24.2545 17.1593ZM31.6153 17.5244H28.3845C27.7915 17.5244 27.2532 17.871 27.0078 18.4108L26.3797 19.7927H33.6201L32.9919 18.4108C32.7466 17.871 32.2083 17.5244 31.6153 17.5244Z" fill="#3E9AFF"/>
<path d="M24.2092 33.4024H18.6584C17.4271 33.4024 16.2721 33.0754 15.2756 32.5034C15.1023 32.4039 14.8779 32.5248 14.8779 32.7247V40.9634C14.8779 43.4689 16.909 45.5 19.4145 45.5H40.5852C43.0907 45.5 45.1218 43.4689 45.1218 40.9634V32.7247C45.1218 32.5248 44.8975 32.4039 44.7241 32.5034C43.7277 33.0754 42.5727 33.4024 41.3413 33.4024H35.7905C35.1677 35.1644 33.4873 36.4268 31.5121 36.4268H28.4877C26.5124 36.4268 24.832 35.1644 24.2092 33.4024Z" fill="#3E9AFF"/>
<path d="M28.4877 30.378C27.6525 30.378 26.9755 31.0551 26.9755 31.8902C26.9755 32.7254 27.6525 33.4024 28.4877 33.4024H31.5121C32.3472 33.4024 33.0243 32.7254 33.0243 31.8902C33.0243 31.0551 32.3472 30.378 31.5121 30.378H28.4877Z" fill="#3E9AFF"/>
</g>
<defs>
<clipPath id="clip0_3449_23943">
<rect width="60" height="60" fill="white"/>
</clipPath>
</defs>
</svg>
